<svg xmlns="http://www.w3.org/2000/svg" viewBox="0 0 146.75 27.010448" width="146.75mm" height="27.010448mm">
  <g transform="translate(-34.749989,-84.46763)">
    <g transform="translate(-6.0000058,0)">
      <path d="m 169.09504,96.596732 c 1.33309,0.347716 2.75151,0.842245 4.23875,1.528523 0.41286,0.189853 0.80279,0.38808 1.16978,0.591769 3.06988,-3.379068 3.41027,-6.541602 1.25419,-8.676588 h -0.002 l -0.002,-0.0018 c -2.15974,-2.136807 -5.36082,-1.796425 -8.78027,1.247749 0.19727,0.35141 0.38994,0.722976 0.57527,1.117505 0.69361,1.47071 1.19455,2.874451 1.54595,4.192863" fill="#a1c9d3"/>
      <path d="m 160.45331,101.32477 c -0.62205,2.10287 -0.70278,3.74148 -0.70278,4.54518 0.80279,0 2.46435,-0.0798 4.59931,-0.6991 -0.66701,-0.51565 -1.36429,-1.123 -2.06432,-1.83863 -0.71013,-0.68077 -1.31658,-1.35786 -1.83221,-2.00745" fill="#7cb4c1"/>
      <path d="m 163.01399,95.889829 c 0.85143,-1.288139 1.92304,-2.622155 3.27173,-3.957081 0.23029,-0.228343 0.45966,-0.443162 0.68811,-0.646825 -2.14322,-3.803872 -4.96355,-5.113103 -7.66644,-3.865353 l -0.002,9.22e-4 -0.002,9.21e-4 c -2.95199,1.360621 -3.63459,4.788324 -1.43723,9.447262 0.0184,0.04135 0.0385,0.08088 0.0578,0.121973 -0.0229,-0.06138 -0.0459,-0.120153 -0.0651,-0.173468 0.81932,-0.296352 2.624,-0.845911 5.15531,-0.928484" fill="#a1c9d3"/>
      <path d="m 174.50311,98.716556 c -0.20826,0.228343 -0.42847,0.458742 -0.6615,0.689036 -1.3597,1.345948 -2.72124,2.411128 -4.03415,3.256138 -0.0899,2.47719 -0.63948,4.24334 -0.93674,5.04888 -0.0541,-0.0208 -0.11379,-0.0413 -0.17524,-0.065 0.0413,0.0182 0.0817,0.0385 0.12293,0.0588 4.71033,2.17169 8.17565,1.49735 9.55187,-1.42298 l 6.8e-4,-0.002 6.9e-4,-0.002 c 1.25603,-2.66437 -0.0531,-5.44434 -3.86899,-7.560937" fill="#a1c9d3"/>
      <path d="m 157.8586,96.818027 c 0.0192,0.0541 0.0422,0.111832 0.0651,0.173469 0.3367,0.876184 1.07252,2.496435 2.52948,4.333244 0.009,-0.0312 0.0192,-0.0614 0.0275,-0.0926 0.47616,-1.577151 1.25693,-3.407512 2.53315,-5.342477 -2.53132,0.0827 -4.33509,0.633068 -5.15531,0.928484" fill="#7cb4c1"/>
      <path d="m 169.09504,96.596732 c -2.30838,-0.60186 -4.3626,-0.762429 -6.08105,-0.707372 -1.27712,1.934965 -2.05698,3.765324 -2.53315,5.34246 -0.008,0.0312 -0.0184,0.0614 -0.0275,0.0926 0.51655,0.64955 1.12208,1.32759 1.83221,2.00742 0.70003,0.71563 1.39731,1.32301 2.06433,1.83954 0.0321,-0.0104 0.0634,-0.0182 0.0963,-0.0283 1.58266,-0.46792 3.42128,-1.23401 5.36082,-2.48179 0.0614,-1.70925 -0.0972,-3.757972 -0.71195,-6.064528" fill="#579dad"/>
      <path d="m 169.09504,96.596732 c -0.3514,-1.318412 -0.85233,-2.722153 -1.54595,-4.192862 -0.18533,-0.39453 -0.378,-0.766096 -0.57526,-1.117505 -0.22845,0.203636 -0.45782,0.418378 -0.68811,0.645916 -1.34869,1.334925 -2.4203,2.668941 -3.27173,3.957079 1.71845,-0.05513 3.77267,0.10559 6.08105,0.707372" fill="#7cb4c1"/>
      <path d="m 169.80727,102.66154 c -1.93954,1.24684 -3.77817,2.01293 -5.36173,2.48177 -0.0321,0.0104 -0.0634,0.0182 -0.0954,0.0276 1.8423,1.42299 3.46531,2.14321 4.34517,2.47535 0.0614,0.0234 0.12111,0.0439 0.17524,0.0642 0.29727,-0.80555 0.84683,-2.57167 0.93674,-5.04886" fill="#7cb4c1"/>
      <path d="m 173.84189,99.405592 c 0.23302,-0.230164 0.45324,-0.460562 0.6615,-0.689036 -0.367,-0.203637 -0.75692,-0.400928 -1.16979,-0.591769 -1.48723,-0.686254 -2.90565,-1.180781 -4.23875,-1.528498 0.61471,2.306531 0.77344,4.356161 0.71289,6.065441 1.31291,-0.84501 2.67444,-1.91019 4.03415,-3.256138" fill="#7cb4c1"/>
      <path d="m 80.058412,91.280045 h -2.57169 c -0.06515,0 -0.102753,0.03302 -0.111935,0.09727 v 2.116626 0.57892 11.653819 c 0,0.0642 0.0367,0.0973 0.111935,0.0973 h 2.57169 c 0.07433,0 0.111026,-0.033 0.111026,-0.0973 v -12.607061 -1.2019 -0.540404 c 0,-0.05514 -0.0367,-0.08712 -0.111026,-0.09727" fill="#1d3055"/>
      <path d="m 114.71925,96.582324 c 0,-1.420256 1.1129,-2.81297 2.86528,-2.81297 h 4.06718 c 0.0743,0 0.11194,-0.03667 0.11194,-0.111831 v -2.266167 c 0,-0.06528 -0.0376,-0.101948 -0.11194,-0.111051 h -4.06718 c -3.62403,0.243948 -4.7773,2.622154 -5.30302,4.575454 l -0.006,-9.21e-4 c -0.0403,0.03588 -0.0422,1.365199 -0.0422,2.739577 0.0275,1.065215 -0.0697,2.081765 0.10275,2.872625 0.61106,2.79832 2.82859,4.35619 5.24889,4.35619 h 4.06719 c 0.0743,0 0.11194,-0.0367 0.11194,-0.11001 v -2.26801 c 0,-0.0642 -0.0376,-0.10091 -0.11194,-0.11002 h -4.04058 c -2.01936,0 -2.89556,-1.5744 -2.89556,-2.7772 0,-1.20281 0.003,-1.984511 0.003,-3.975443" fill="#1d3055"/>
      <path d="m 83.021405,91.280045 h 6.603089 c 2.155155,0 4.913093,2.12305 4.913093,4.847958 v 9.584887 c 0,0.0743 -0.0367,0.11106 -0.111935,0.11106 h -2.57169 c -0.07433,0 -0.111936,-0.0367 -0.111936,-0.11106 v -8.728885 c 0,-1.656037 -1.276211,-3.3121 -3.329525,-3.269891 l -2.764362,-9.21e-4 v 11.999697 c 0,0.0743 -0.0367,0.11105 -0.111934,0.11105 h -2.514808 c -0.07524,0 -0.111935,-0.0367 -0.111935,-0.11105 V 91.39107 c 0.0091,-0.07334 0.04679,-0.111051 0.111935,-0.111051" fill="#1d3055"/>
      <path d="m 54.497207,91.280045 h -5.001169 c -0.04679,0 -0.07339,0.02653 -0.07982,0.0788 v 2.331316 c 0,0.05332 0.02661,0.0788 0.07982,0.0788 h 4.265351 v 11.976759 c 0,0.0515 0.02661,0.078 0.0789,0.078 h 2.636834 c 0.05321,0 0.07982,-0.0265 0.07982,-0.078 V 93.043232 c 0,-0.456895 -0.09266,-0.83582 -0.277996,-1.13584 -0.2569,-0.417443 -0.850503,-0.627555 -1.781741,-0.627555" fill="#1d3055"/>
      <path d="m 60.822756,91.280045 h -7.667359 v 0.0788 c 0.211022,0 0.404607,0.06892 0.56333,0.183611 0.117448,0.07802 0.22569,0.190893 0.300017,0.358744 0.05597,0.114693 0.089,0.241348 0.09357,0.377079 0.0055,0.06424 0.0091,0.132117 0.0083,0.206498 -0.0072,0.613797 -0.0072,1.284471 -0.0072,1.284471 h 6.709512 c 0.05321,0 0.07891,-0.02601 0.07891,-0.0788 v -2.331315 c 0,-0.04578 -0.02575,-0.07152 -0.07891,-0.0788" fill="#1d3055"/>
      <path d="m 139.08076,91.280045 h 6.60309 c 2.15516,0 4.91309,2.12305 4.91309,4.847958 v 9.584887 c 0,0.0743 -0.0367,0.11106 -0.11193,0.11106 h -2.57169 c -0.0743,0 -0.11194,-0.0367 -0.11194,-0.11106 v -8.728885 c 0,-1.656037 -1.2762,-3.3121 -3.32952,-3.269891 l -2.76436,-9.21e-4 v 11.999697 c 0,0.0743 -0.0367,0.11105 -0.11194,0.11105 h -2.51481 c -0.0753,0 -0.11194,-0.0367 -0.11194,-0.11105 V 91.39107 c 0.009,-0.07334 0.0468,-0.111051 0.11194,-0.111051" fill="#1d3055"/>
      <path d="m 129.32,103.33534 c -3.2176,0 -3.08732,-4.687391 0,-4.687391 3.08823,0 3.52862,-0.30093 4.15617,-0.39453 v 5.081921 z m 6.95081,-8.294934 c 0,-0.266964 -0.0551,-0.727553 -0.16697,-1.382623 -0.49544,-1.584491 -1.57439,-2.378102 -3.24329,-2.378102 h -7.04348 c -0.0661,0 -0.10366,0.03771 -0.11194,0.111051 v 2.267104 c 0,0.07438 0.0376,0.11105 0.11194,0.11105 h 6.63429 c 1.2707,0 1.44685,1.923054 0,2.069838 -1.21934,0.160465 -2.42214,0.310111 -3.21118,0.356898 -2.7616,0.162285 -4.63509,2.103778 -4.82135,4.540608 v 0.15683 c 0,0.7459 0.14864,1.48357 0.44774,2.21203 0.6982,1.58541 2.22672,2.71849 4.58464,2.71849 h 6.70767 c 0.0743,0 0.11194,-0.0367 0.11194,-0.11001 V 95.223133 h -0.006 c 0.003,-0.05955 0.006,-0.120154 0.006,-0.182571" fill="#1d3055"/>
      <path d="m 68.011194,103.33534 c -3.217593,0 -3.087312,-4.687391 0,-4.687391 3.087313,0 3.528622,-0.30093 4.155259,-0.39453 v 5.081921 z m 6.950814,-8.294934 c 0,-0.266964 -0.05597,-0.727553 -0.166993,-1.382623 -0.495438,-1.584491 -1.575311,-2.378102 -3.244201,-2.378102 h -7.042558 c -0.06606,0 -0.103665,0.03771 -0.111935,0.111051 v 2.267104 c 0,0.07438 0.0367,0.11105 0.111935,0.11105 h 6.634281 c 1.270706,0 1.446861,1.923054 0,2.069838 -1.220247,0.160465 -2.423058,0.310111 -3.21209,0.356898 -2.761608,0.162285 -4.635099,2.103778 -4.820429,4.540608 v 0.15683 c 0,0.7459 0.148631,1.48357 0.44773,2.21203 0.698201,1.58541 2.225802,2.71849 4.58372,2.71849 h 6.708597 c 0.0743,0 0.111934,-0.0367 0.111934,-0.11001 V 95.223133 h -0.0065 c 0.0028,-0.05955 0.0065,-0.120154 0.0065,-0.182571" fill="#1d3055"/>
      <path d="m 102.4112,103.33534 c -3.217596,0 -3.087315,-4.687391 0,-4.687391 3.08822,0 3.52862,-0.30093 4.15525,-0.39453 v 5.081921 z m 6.95081,-8.294934 c 0,-0.266964 -0.056,-0.727553 -0.167,-1.382623 -0.49543,-1.584491 -1.5753,-2.378102 -3.24327,-2.378102 h -7.043482 c -0.06606,0 -0.103665,0.03771 -0.111936,0.111051 v 2.267104 c 0,0.07438 0.0367,0.11105 0.111936,0.11105 h 6.634282 c 1.27071,0 1.44686,1.923054 0,2.069838 -1.21933,0.160465 -2.42306,0.310111 -3.21209,0.356898 -2.761609,0.162285 -4.635098,2.103778 -4.82043,4.540608 v 0.15683 c 0,0.7459 0.148631,1.48357 0.44773,2.21203 0.698201,1.58541 2.2258,2.71849 4.58464,2.71849 h 6.70768 c 0.0743,0 0.11193,-0.0367 0.11193,-0.11001 V 95.223133 h -0.006 c 0.003,-0.05955 0.006,-0.120154 0.006,-0.182571" fill="#1d3055"/>
    </g>
  </g>
</svg>
