<svg width="220" height="34" viewBox="0 0 220 34" fill="none" xmlns="http://www.w3.org/2000/svg">
<g clip-path="url(#clip0_2489_2660)">
<path d="M80.3278 10.5188C76.6685 9.83885 75.6427 9.39956 75.6427 8.23066C75.6427 7.06175 76.7144 6.5728 79.011 6.5728C81.6483 6.5728 84.2358 7.40173 85.7937 8.2765C87.1143 7.25275 88.0406 5.54905 88.3315 3.21124C86.7238 2.1875 83.7459 1.06825 78.9154 1.06825C73.1088 1.06825 68.7146 3.7957 68.7146 8.57063C68.7146 13.6855 72.7145 15.0493 76.5231 15.8285C80.3278 16.5085 81.5488 17.1426 81.5488 18.3612C81.5488 19.3849 80.768 20.2138 78.5249 20.2138C75.0111 20.2138 72.6188 18.9456 70.9117 17.876C69.4954 18.7546 68.4237 20.4583 68.0333 22.7465C69.5452 24.0147 73.059 25.6687 78.28 25.6687C85.0626 25.6687 88.7716 22.651 88.7716 17.8302C88.7716 12.8146 84.9172 11.3019 80.3278 10.5226M51.5857 11.0039C51.9264 8.37199 53.5378 6.5728 56.3205 6.5728C59.2985 6.71796 60.3702 8.76545 60.3702 11.0039H51.5857ZM56.2708 1.06825C49.3427 1.06825 44.1676 6.18316 44.1676 13.4869C44.1676 21.2299 49.3388 25.6611 56.5119 25.6611C61.5377 25.6611 64.7108 23.9574 66.7586 22.3988C66.5634 20.5958 65.6371 18.6477 64.1214 17.4788C62.3147 18.6477 60.2171 19.8166 57.2889 19.8166C53.8249 19.8166 52.0182 18.3573 51.5819 15.0913H67.0036C67.1835 13.9644 67.2639 12.8222 67.2486 11.6801C67.2486 5.20144 62.8085 1.06443 56.267 1.06443M40.9447 17.8722C39.9189 18.7966 38.6979 19.5759 36.4549 19.5759C32.6961 19.5759 30.9889 16.7033 30.9889 13.2462C30.9889 9.78919 32.8454 7.01209 36.4051 7.01209C37.9247 7.01209 39.3869 7.5889 40.5046 8.62029C42.3112 7.50105 43.8232 5.45737 44.2633 3.50538C42.8969 2.28682 39.7735 0.923096 36.2099 0.923096C29.0368 0.923096 23.6704 5.74387 23.6704 13.3417C23.6704 21.1344 28.5507 25.6611 36.4089 25.6611C40.1677 25.6611 42.9964 24.1522 44.6538 22.6395C44.0681 20.4468 42.7514 18.7432 40.9447 17.8684M14.9816 20.0152C13.8409 20.359 12.6582 20.5385 11.4677 20.55C8.68501 20.55 7.26877 19.4307 7.26877 17.727C7.26877 16.0233 8.68501 15.2441 10.9778 15.2441C12.329 15.2326 13.6763 15.4122 14.9777 15.7789V20.0152H14.9816ZM10.8323 1.06825C5.75684 1.06825 2.09757 3.2609 0.780847 4.42981C1.12151 6.5728 2.34254 8.181 3.90424 9.05577C5.12527 8.13134 7.46781 7.06175 10.2008 7.06175C13.6151 7.06175 14.9816 8.47513 14.9816 10.473V11.3974C13.5691 10.9581 11.9577 10.7633 10.1013 10.7174C4.19897 10.6678 0 13.1507 0 18.0212C0 22.8916 3.85448 25.6191 10.4917 25.6191C14.5069 25.6191 18.4839 24.8398 22.2044 23.3309V11.2064C22.2044 3.99051 17.5691 1.06825 10.8323 1.06825ZM96.3313 19.702C94.9342 19.2856 93.606 18.6706 92.385 17.8722C91.0874 18.6744 90.0807 20.1756 89.6176 22.1811C92.7716 22.0054 95.7763 21.2911 98.5514 20.126C97.8012 20.0458 97.0586 19.9082 96.3351 19.702M97.9964 15.8247C99.7112 16.1303 100.898 16.4283 101.686 16.7759C102.36 17.07 102.739 17.4023 102.911 17.8034C104.928 16.4779 106.762 14.8926 108.35 13.0896C108.239 12.9865 108.124 12.8872 108.006 12.7917C106.452 11.554 104.232 10.9275 101.801 10.515C98.1418 9.83503 97.116 9.39574 97.116 8.22684C97.116 7.05793 98.1877 6.56898 100.484 6.56898C103.122 6.56898 105.705 7.39791 107.267 8.27268C108.584 7.24893 109.514 5.54523 109.805 3.20742C108.193 2.18368 105.219 1.06443 100.385 1.06443C94.5782 1.06443 90.1879 3.79188 90.1879 8.56681C90.1879 13.6817 94.1878 15.0454 97.9964 15.8247Z" fill="#0059F2"/>
<path d="M152.434 1.39296C145.138 1.39296 138.662 7.375 138.662 16.6345C138.662 22.4714 142.095 25.2676 146.202 25.2676C149.391 25.2676 152.147 23.6747 154.321 21.0237L153.838 24.836C154.635 25.0041 155.458 25.0041 156.254 24.836L160.024 3.42135C158.428 2.26391 156.013 1.39296 152.438 1.39296H152.434ZM154.998 16.7339C153.016 20.5424 149.923 22.8076 146.78 22.8076C143.638 22.8076 141.464 20.3972 141.464 16.1532C141.464 8.7731 146.344 3.90266 152.047 3.90266C153.789 3.79189 155.526 4.1586 157.073 4.96461L154.994 16.7377L154.998 16.7339ZM201.153 2.06909C199.687 1.5916 198.152 1.3624 196.609 1.39296C193.654 1.39296 190.741 2.08819 188.104 3.42135L184.383 24.6908C184.812 24.794 185.248 24.8398 185.689 24.836C186.159 24.836 186.63 24.7901 187.09 24.6908L190.523 5.01427C192.33 4.2732 194.274 3.91412 196.226 3.95232C197.512 3.9294 198.795 4.07456 200.042 4.3878C200.64 3.74605 201.026 2.94004 201.156 2.07291L201.153 2.06909ZM210.817 1.39678C203.618 1.39678 198.833 7.37882 198.833 15.5306C198.833 21.0733 202.167 25.2256 208.207 25.2256C215.361 25.2256 220 19.1977 220 11.1415C220 5.40008 216.762 1.4006 210.817 1.4006V1.39678ZM208.544 22.8572C203.855 22.8572 201.585 19.4804 201.585 14.9958C201.585 9.25441 204.678 3.80716 210.431 3.80716C214.974 3.80716 217.198 6.94334 217.198 11.619C217.198 17.5513 214.01 22.8534 208.548 22.8534L208.544 22.8572ZM161.812 15.3319C161.812 21.0733 165.582 24.3547 170.944 24.3547C173.069 24.3165 175.151 23.7358 176.984 22.6662L176.694 24.305C175.966 28.5948 172.923 31.5896 168.476 31.5896C164.56 31.5896 162.581 30.096 161.371 28.4535C160.495 28.7743 159.771 29.4123 159.343 30.2374C161.084 32.5523 163.982 34 168.476 34C174.324 34 178.336 30.1915 179.396 24.305L183.071 3.42135C180.713 2.00797 177.991 1.30128 175.243 1.39296C168.234 1.39296 161.808 6.45821 161.808 15.3319H161.812ZM180.127 5.01045L177.471 19.9617C175.767 21.2299 173.7 21.9214 171.576 21.9405C167.274 21.9405 164.617 19.4346 164.617 14.9958C164.617 7.90597 169.306 3.90266 174.864 3.90266C176.686 3.81098 178.5 4.19298 180.131 5.01045H180.127ZM122.658 1.095C122.379 1.08354 122.099 1.07208 121.808 1.07208C120.702 1.07208 119.669 1.17904 118.708 1.35476C117.889 4.00198 116.725 6.49641 115.267 8.78456C116.561 7.93271 118.704 7.06176 121.173 7.06176C124.587 7.06176 125.958 8.47514 125.958 10.4692V11.3936C124.541 10.9543 122.93 10.7595 121.077 10.7136C115.175 10.664 110.976 13.1469 110.976 18.0174C110.976 22.8878 114.831 25.6152 121.468 25.6152C125.483 25.6152 129.46 24.836 133.18 23.3271V11.1988C133.18 4.29994 128.928 1.33566 122.658 1.09118V1.095ZM125.958 20.0152C124.817 20.359 123.634 20.5385 122.444 20.55C119.661 20.55 118.245 19.4307 118.245 17.7232C118.245 16.0157 119.661 15.2403 121.954 15.2403C123.305 15.2288 124.656 15.4083 125.958 15.7751V20.0114V20.0152ZM109.809 15.2326C104.546 19.9617 97.6481 22.9184 90.0654 23.159C91.7955 24.3432 95.0873 25.6649 99.7533 25.6649C106.536 25.6649 110.245 22.6471 110.245 17.8264C110.245 16.8294 110.088 15.9737 109.809 15.2326Z" fill="#83D104"/>
</g>
<defs>
<clipPath id="clip0_2489_2660">
<rect width="220" height="33.0769" fill="white" transform="translate(0 0.923096)"/>
</clipPath>
</defs>
</svg>
